# Blender 3.3.0
# www.blender.org
mtllib asteroid.mtl
o meteoro_Icosphere
v 0.096852 -1.368720 0.028059
v 1.279279 -0.905512 0.885828
v -0.350785 -0.711103 1.216165
v -1.345269 -0.855046 0.295422
v -0.442701 -0.739234 -1.228390
v 0.881609 -0.451265 -1.137442
v 0.211463 0.796748 0.949847
v -0.991326 0.514251 0.880394
v -1.381328 0.207196 -0.862852
v 0.096943 0.365843 -1.029088
v 1.002753 0.802768 -0.067658
v -0.008643 1.439276 0.045219
v -0.216435 -1.207186 0.703336
v 0.943641 -1.130008 0.564258
v 0.477351 -1.252956 1.392769
v 1.204719 -0.457956 -0.277220
v 0.930291 -1.184555 -0.396833
v -0.737814 -1.210045 0.052782
v -0.941924 -0.715099 0.676544
v -0.216570 -1.184463 -0.677122
v -0.984840 -0.782293 -0.648384
v 0.466239 -1.141071 -0.854643
v 1.365655 -0.040453 0.450265
v 1.249703 0.403020 -0.816597
v 0.053971 -0.017429 1.372457
v 0.953462 -0.451448 1.002745
v -1.329185 -0.025608 0.475142
v -0.750127 -0.298209 1.517572
v -1.168971 -0.360309 -1.286128
v -1.722414 -0.546649 -0.242846
v 0.615645 0.209702 -1.362849
v -0.207466 -0.321227 -1.586121
v 1.272138 1.223073 0.763076
v -0.263962 0.732373 1.175873
v -1.270420 0.638057 0.046793
v -0.673034 0.337741 -1.348022
v 0.899826 0.824685 -0.834648
v 0.160455 1.359595 0.964643
v 0.695416 1.291448 -0.079250
v -0.373047 1.145687 0.537633
v -1.320229 1.042169 -0.049934
v 0.165575 1.438617 -0.989114
vn 0.0965 -0.9570 0.2737
vn 0.7092 -0.6415 -0.2923
vn -0.1804 -0.9723 0.1489
vn -0.1889 -0.9674 -0.1688
vn 0.0685 -0.9574 -0.2806
vn 0.9792 -0.1605 -0.1245
vn -0.2519 -0.0705 0.9652
vn -0.6515 -0.1486 0.7440
vn -0.3915 -0.8154 -0.4265
vn -0.0643 -0.3452 -0.9363
vn 0.6526 0.2878 0.7009
vn 0.2879 -0.3672 0.8845
vn -0.8407 -0.0990 0.5323
vn -0.2268 -0.5565 -0.7993
vn 0.6520 0.0038 -0.7582
vn 0.1772 -0.0098 0.9841
vn -0.4355 0.7198 0.5406
vn -0.9837 -0.0831 0.1593
vn 0.3824 0.0100 -0.9240
vn 0.8435 0.5281 -0.0981
vn 0.2113 0.9768 0.0350
vn 0.6508 0.7120 -0.2638
vn 0.2234 0.0220 -0.9745
vn -0.2862 0.9569 -0.0488
vn -0.5354 0.6012 -0.5932
vn -0.5195 0.6153 -0.5929
vn -0.2958 0.9007 0.3181
vn -0.5329 0.1343 0.8354
vn -0.5906 0.7457 0.3085
vn -0.4765 0.8640 0.1625
vn -0.6339 0.5952 0.4938
vn 0.4277 0.0150 0.9038
vn 0.2130 0.9760 0.0454
vn 0.1214 0.9926 -0.0026
vn 0.7496 0.4601 -0.4759
vn 0.7686 0.6341 -0.0850
vn 0.5239 0.4026 -0.7506
vn -0.2307 0.6931 -0.6829
vn 0.3131 0.5105 -0.8008
vn -0.3001 0.1294 -0.9451
vn -0.5732 0.3412 -0.7450
vn -0.9274 0.3689 -0.0617
vn -0.9132 0.2749 0.3007
vn -0.8903 0.3000 0.3426
vn -0.4493 0.4649 0.7629
vn 0.0741 0.2822 0.9565
vn 0.3560 0.3753 0.8558
vn 0.1265 0.1169 0.9851
vn 0.8258 -0.0772 0.5587
vn 0.9121 0.1609 -0.3772
vn -0.2456 0.6738 -0.6969
vn 0.4522 -0.3575 -0.8171
vn 0.0198 -0.6565 -0.7541
vn -0.8845 0.0168 -0.4662
vn -0.4678 -0.7932 -0.3898
vn -0.4059 -0.8862 -0.2233
vn -0.8476 0.1480 0.5095
vn -0.8504 -0.3678 0.3762
vn -0.4309 -0.7655 0.4777
vn 0.4895 0.3253 0.8091
vn 0.4424 0.1661 0.8813
vn 0.4893 0.1290 0.8625
vn 0.9006 0.4293 0.0678
vn 0.9808 -0.1377 -0.1380
vn 0.9030 -0.2609 -0.3412
vn 0.5453 -0.5775 -0.6076
vn 0.0305 -0.9917 -0.1251
vn -0.1051 -0.7943 -0.5984
vn -0.4260 -0.7813 -0.4562
vn -0.4451 -0.8256 -0.3468
vn -0.5647 -0.7779 -0.2756
vn -0.2452 -0.7969 0.5521
vn -0.5200 -0.7438 0.4200
vn -0.4866 -0.6881 0.5382
vn 0.8971 -0.2830 -0.3392
vn 0.9351 -0.3543 0.0071
vn 0.2405 -0.9693 0.0517
vn -0.5455 -0.6693 0.5045
vn 0.0518 -0.9917 -0.1180
vn 0.4622 -0.8772 0.1300
vt 0.395787 0.345834
vt 0.593923 0.495080
vt 0.726641 0.087883
vt 0.419872 0.579388
vt 0.627917 0.093466
vt 0.310464 0.580820
vt 0.495629 0.643703
vt 0.653259 0.515114
vt 0.310464 0.113404
vt 0.429046 0.139449
vt 0.352348 0.635840
vt 0.475214 0.391868
vt 0.640976 0.404714
vt 0.693717 0.793112
vt 0.593923 0.731993
vt 0.258057 0.138607
vt 0.569357 0.754498
vt 0.203910 0.382068
vt 0.541266 0.145740
vt 0.681550 1.000000
vt 0.278860 0.519665
vt 0.537163 0.593538
vt 0.348782 0.339201
vt 0.569138 0.532675
vt 0.416223 0.511192
vt 0.678156 0.000000
vt 0.537163 0.720204
vt 0.352740 0.503467
vt 0.529092 0.401480
vt 0.515048 0.541185
vt 0.459969 0.439779
vt 0.351790 0.207461
vt 0.684735 0.548935
vt 0.352348 0.676997
vt 0.314476 0.200426
vt 0.499524 0.541185
vt 0.413093 0.235420
vt 0.373540 0.097720
vt 0.382156 0.579388
vt 0.495629 0.813919
vt 0.481204 0.522335
vt 0.457228 0.329614
vt 0.726641 0.264442
vt 0.574006 0.322737
vt 0.502614 0.228909
vt 0.636553 0.237025
vt 0.699615 0.170802
vt 0.662945 0.680592
vt 0.593923 0.165329
vt 0.733035 0.632262
vt 0.352348 0.579388
vt 0.219238 0.092032
vt 0.395598 0.003007
vt 0.614724 0.572164
vt 0.278440 0.000000
vt 0.317270 0.000000
vt 0.382156 0.690785
vt 0.459969 0.253893
vt 0.168125 0.436172
vt 0.495629 0.541185
vt 0.174301 0.239212
vt 0.459969 0.617613
vt 0.459969 0.132849
vt 0.260418 0.698932
vt 0.696270 0.510329
vt 0.593923 0.068799
vt 0.730714 0.848943
vt 0.611519 0.381279
vt 0.643232 0.816321
vt 0.537163 0.754498
vt 0.216070 0.255886
vt 0.496640 0.137621
vt 0.195490 0.566291
vt 0.733035 0.983212
vt 0.629339 0.515114
vt 0.310464 0.549680
vt 0.245849 0.606410
vt 0.536644 0.041896
vt 0.305482 0.434227
vt 0.695285 0.932381
vt 0.310464 0.267161
vt 0.636909 0.896673
vt 0.563125 0.541185
vt 0.476703 0.000000
vt 0.228646 0.530049
usemtl None
f 1/1/1 14/25/1 13/23/1
f 2/2/2 14/24/2 16/29/2
f 1/1/3 13/23/3 18/32/3
f 1/1/4 18/32/4 20/37/4
f 1/1/5 20/37/5 17/31/5
f 2/2/6 16/29/6 23/44/6
f 3/5/7 15/26/7 25/46/7
f 4/8/8 19/33/8 27/48/8
f 5/10/9 21/38/9 29/53/9
f 6/11/10 22/39/10 31/57/10
f 2/3/11 23/43/11 26/47/11
f 3/5/12 25/46/12 28/49/12
f 4/8/13 27/48/13 30/54/13
f 5/10/14 29/53/14 32/63/14
f 6/12/15 31/58/15 24/45/15
f 7/13/16 33/65/16 38/75/16
f 8/14/17 34/67/17 40/80/17
f 9/15/18 35/69/18 41/82/18
f 10/17/19 36/70/19 42/83/19
f 11/19/20 37/72/20 39/78/20
f 39/77/21 42/85/21 12/21/21
f 39/78/22 37/72/22 42/84/22
f 37/73/23 10/18/23 42/85/23
f 42/85/24 41/81/24 12/21/24
f 42/85/25 36/71/25 41/81/25
f 36/71/26 9/16/26 41/81/26
f 41/82/27 40/80/27 12/20/27
f 41/82/28 35/69/28 40/80/28
f 35/69/29 8/14/29 40/80/29
f 40/79/30 38/76/30 12/21/30
f 40/80/31 34/67/31 38/74/31
f 34/68/32 7/13/32 38/75/32
f 38/76/33 39/77/33 12/21/33
f 38/76/34 33/64/34 39/77/34
f 33/66/35 11/19/35 39/78/35
f 24/45/36 37/72/36 11/19/36
f 24/45/37 31/58/37 37/72/37
f 31/59/38 10/18/38 37/73/38
f 32/61/39 36/71/39 10/18/39
f 32/61/40 29/52/40 36/71/40
f 29/52/41 9/16/41 36/71/41
f 30/54/42 35/69/42 9/15/42
f 30/54/43 27/48/43 35/69/43
f 27/48/44 8/14/44 35/69/44
f 28/50/45 34/67/45 8/14/45
f 28/49/46 25/46/46 34/68/46
f 25/46/47 7/13/47 34/68/47
f 26/47/48 33/65/48 7/13/48
f 26/47/49 23/43/49 33/65/49
f 23/44/50 11/19/50 33/66/50
f 31/59/51 32/61/51 10/18/51
f 31/60/52 22/40/52 32/62/52
f 22/42/53 5/10/53 32/63/53
f 29/52/54 30/55/54 9/16/54
f 29/53/55 21/38/55 30/56/55
f 21/38/56 4/9/56 30/56/56
f 27/48/57 28/50/57 8/14/57
f 27/48/58 19/33/58 28/50/58
f 19/34/59 3/6/59 28/51/59
f 25/46/60 26/47/60 7/13/60
f 25/46/61 15/26/61 26/47/61
f 15/26/62 2/3/62 26/47/62
f 23/44/63 24/45/63 11/19/63
f 23/44/64 16/29/64 24/45/64
f 16/29/65 6/12/65 24/45/65
f 17/30/66 22/41/66 6/12/66
f 17/31/67 20/37/67 22/42/67
f 20/37/68 5/10/68 22/42/68
f 20/37/69 21/38/69 5/10/69
f 20/37/70 18/32/70 21/38/70
f 18/32/71 4/9/71 21/38/71
f 18/32/72 19/35/72 4/9/72
f 18/32/73 13/23/73 19/35/73
f 13/22/74 3/7/74 19/36/74
f 16/29/75 17/30/75 6/12/75
f 16/29/76 14/24/76 17/30/76
f 14/25/77 1/1/77 17/31/77
f 13/22/78 15/27/78 3/7/78
f 13/23/79 14/25/79 15/28/79
f 14/25/80 2/4/80 15/28/80
